<svg xmlns="http://www.w3.org/2000/svg" viewBox="0 0 32 32"><path d="M15.984375 1.9863281 A 1.0001 1.0001 0 0 0 15.773438 2.0136719C13.780807 2.0458005 11.890256 2.4990299 10.179688 3.2832031 A 1.0001 1.0001 0 0 0 9.7089844 3.4980469C7.9756181 4.3717318 6.4546911 5.596909 5.2285156 7.0761719 A 1.0001 1.0001 0 0 0 4.9121094 7.4707031C3.7581966 8.9685231 2.9110028 10.710516 2.4394531 12.601562 A 1.0001 1.0001 0 0 0 2.4375 12.603516 A 1.0001 1.0001 0 0 0 2.3066406 13.169922C2.110976 14.090022 2 15.03644 2 16C2 16.96356 2.1109783 17.909982 2.3066406 18.830078 A 1.0001 1.0001 0 0 0 2.4375 19.398438 A 1.0001 1.0001 0 0 0 2.4394531 19.402344C2.9108293 21.290541 3.7583253 23.029303 4.9101562 24.525391 A 1.0001 1.0001 0 0 0 5.2265625 24.921875C6.4539586 26.403206 7.9770826 27.629672 9.7128906 28.503906 A 1.0001 1.0001 0 0 0 10.181641 28.71875C11.890477 29.501751 13.779242 29.953686 15.769531 29.986328 A 1.0001 1.0001 0 0 0 16.224609 29.986328C18.21796 29.954464 20.109181 29.501228 21.820312 28.716797 A 1.0001 1.0001 0 0 0 22.291016 28.501953C24.024382 27.628268 25.545309 26.403091 26.771484 24.923828 A 1.0001 1.0001 0 0 0 27.087891 24.529297C28.241804 23.031477 29.088998 21.289484 29.560547 19.398438C29.560743 19.397652 29.562304 19.39727 29.5625 19.396484 A 1.0001 1.0001 0 0 0 29.693359 18.822266 A 1.0001 1.0001 0 0 0 29.693359 18.820312C29.887837 17.903183 30 16.960243 30 16C30 15.03644 29.889022 14.090018 29.693359 13.169922 A 1.0001 1.0001 0 0 0 29.5625 12.601562 A 1.0001 1.0001 0 0 0 29.560547 12.597656C29.08921 10.709454 28.241675 8.9706969 27.089844 7.4746094 A 1.0001 1.0001 0 0 0 26.773438 7.078125C25.546043 5.5967971 24.022917 4.3703278 22.287109 3.4960938 A 1.0001 1.0001 0 0 0 21.818359 3.28125C20.106677 2.4969454 18.214633 2.0430239 16.220703 2.0117188 A 1.0001 1.0001 0 0 0 15.984375 1.9863281 z M 15 4.0585938L15 6.0585938C14.162076 6.1425513 13.354075 6.3252376 12.589844 6.6035156L11.716797 4.7988281C12.749992 4.4036283 13.851422 4.1535936 15 4.0585938 z M 17 4.0585938C18.148578 4.1535936 19.250008 4.4036285 20.283203 4.7988281L19.410156 6.6035156C18.645989 6.325337 17.837828 6.142497 17 6.0585938L17 4.0585938 z M 9.9160156 5.671875L10.789062 7.4746094C10.170354 7.8526267 9.5994372 8.2962966 9.0820312 8.7949219 A 1.0001 1.0001 0 0 0 8.84375 9.0097656L7.2871094 7.7675781C8.0587221 6.9505401 8.9423366 6.2468016 9.9160156 5.671875 z M 22.083984 5.671875C23.057663 6.2468013 23.941278 6.9505409 24.712891 7.7675781L23.154297 9.0117188 A 1.0001 1.0001 0 0 0 22.925781 8.8007812C22.40644 8.2996246 21.832504 7.854155 21.210938 7.4746094L22.083984 5.671875 z M 15 8.203125L15 10.201172C14.11 10.357144 13.310675 10.683683 12.599609 11.183594L11.191406 9.7773438C12.279767 8.9320073 13.562885 8.3912905 15 8.203125 z M 17 8.203125C18.437115 8.3912905 19.720233 8.9320073 20.808594 9.7773438L19.400391 11.183594C18.689325 10.683683 17.89 10.357144 17 10.201172L17 8.203125 z M 6.0410156 9.3300781L7.6074219 10.580078C7.1597813 11.271231 6.7952711 12.021851 6.5253906 12.816406L4.5800781 12.371094C4.9252461 11.280286 5.41842 10.259255 6.0410156 9.3300781 z M 25.958984 9.3300781C26.58158 10.259255 27.074755 11.280292 27.419922 12.371094L25.474609 12.816406C25.204727 12.021852 24.840219 11.271231 24.392578 10.580078L25.958984 9.3300781 z M 9.7773438 11.191406L11.183594 12.599609C10.683683 13.310675 10.357144 14.11 10.201172 15L8.203125 15C8.3912905 13.562885 8.9320073 12.279767 9.7773438 11.191406 z M 22.222656 11.191406C23.067993 12.279767 23.60871 13.562885 23.796875 15L21.798828 15C21.642856 14.11 21.316317 13.310675 20.816406 12.599609L22.222656 11.191406 z M 15.945312 12.011719 A 1.0001 1.0001 0 0 0 16.056641 12.011719C17.121578 12.027319 18.07459 12.45299 18.789062 13.140625 A 1.0001 1.0001 0 0 0 18.859375 13.208984C19.5481 13.924029 19.97318 14.878992 19.988281 15.945312 A 1.0001 1.0001 0 0 0 19.988281 16.056641C19.972681 17.121578 19.54701 18.074589 18.859375 18.789062 A 1.0001 1.0001 0 0 0 18.791016 18.859375C18.075971 19.5481 17.121007 19.97318 16.054688 19.988281 A 1.0001 1.0001 0 0 0 15.943359 19.988281C14.878422 19.972681 13.92541 19.54701 13.210938 18.859375 A 1.0001 1.0001 0 0 0 13.140625 18.791016C12.451901 18.075974 12.02682 17.121007 12.011719 16.054688 A 1.0001 1.0001 0 0 0 12.011719 15.943359C12.027319 14.878422 12.45299 13.92541 13.140625 13.210938 A 1.0001 1.0001 0 0 0 13.208984 13.140625C13.924028 12.451897 14.878993 12.02682 15.945312 12.011719 z M 4.1328125 14.318359L6.0800781 14.765625C6.0392941 15.09932 6.0191512 15.44125 6.0117188 15.787109 A 1.0001 1.0001 0 0 0 6.0117188 16.212891C6.0191512 16.55875 6.0392936 16.900679 6.0800781 17.234375L4.1328125 17.681641C4.0538136 17.131233 4 16.572952 4 16C4 15.427048 4.0538143 14.868764 4.1328125 14.318359 z M 27.867188 14.318359C27.946174 14.868768 28 15.427048 28 16C28 16.572952 27.946186 17.131236 27.867188 17.681641L25.919922 17.234375C25.960707 16.90068 25.980849 16.55875 25.988281 16.212891 A 1.0001 1.0001 0 0 0 25.988281 15.787109C25.980849 15.44125 25.960707 15.099321 25.919922 14.765625L27.867188 14.318359 z M 8.203125 17L10.201172 17C10.357144 17.89 10.683683 18.689325 11.183594 19.400391L9.7773438 20.808594C8.9320073 19.720233 8.3912905 18.437115 8.203125 17 z M 21.798828 17L23.796875 17C23.60871 18.437115 23.067993 19.720233 22.222656 20.808594L20.816406 19.400391C21.316317 18.689325 21.642856 17.89 21.798828 17 z M 6.5253906 19.183594C6.7949775 19.977548 7.1603747 20.727241 7.6074219 21.417969L6.0410156 22.669922C5.41842 21.740765 4.9252448 20.719707 4.5800781 19.628906L6.5253906 19.183594 z M 25.474609 19.183594L27.419922 19.628906C27.074755 20.719708 26.58158 21.740745 25.958984 22.669922L24.392578 21.417969C24.839625 20.727241 25.205022 19.977548 25.474609 19.183594 z M 12.599609 20.816406C13.310675 21.316317 14.11 21.642856 15 21.798828L15 23.796875C13.562885 23.60871 12.279767 23.067993 11.191406 22.222656L12.599609 20.816406 z M 19.400391 20.816406L20.808594 22.222656C19.720233 23.067993 18.437115 23.60871 17 23.796875L17 21.798828C17.89 21.642856 18.689325 21.316317 19.400391 20.816406 z M 8.8457031 22.988281 A 1.0001 1.0001 0 0 0 9.0742188 23.199219C9.5935709 23.700376 10.167495 24.145845 10.789062 24.525391L9.9160156 26.328125C8.9423366 25.753199 8.0587221 25.049459 7.2871094 24.232422L8.8457031 22.988281 z M 23.15625 22.990234L24.712891 24.232422C23.94129 25.04945 23.057658 25.753202 22.083984 26.328125L21.210938 24.525391C21.832131 24.146073 22.406674 23.70196 22.925781 23.201172 A 1.0001 1.0001 0 0 0 23.15625 22.990234 z M 12.589844 25.396484C13.354043 25.674746 14.162078 25.85745 15 25.941406L15 27.941406C13.851422 27.846406 12.749992 27.596372 11.716797 27.201172L12.589844 25.396484 z M 19.410156 25.396484L20.283203 27.201172C19.25001 27.59637 18.148578 27.846406 17 27.941406L17 25.941406C17.837828 25.857503 18.645989 25.674663 19.410156 25.396484 z"/></svg>