<svg xmlns="http://www.w3.org/2000/svg" viewBox="0 0 24 24">
  <path d="M12 1C11.448 1 11 1.448 11 2L11 9L7.7167969 9C6.7297969 9 5.8882812 9.7193125 5.7382812 10.695312L5.6269531 11.423828C5.5799531 11.726828 5.8150938 12 6.1210938 12L17.878906 12C18.185906 12 18.420047 11.726828 18.373047 11.423828L18.261719 10.695312C18.111719 9.7193125 17.270203 9 16.283203 9L13 9L13 2C13 1.448 12.552 1 12 1 z M 5.6601562 14C5.4131563 14 5.2030156 14.179828 5.1660156 14.423828L4.1777344 20.847656C4.0837344 21.453656 4.5530156 22 5.1660156 22L7.8046875 22C8.3206875 22 8.7527812 21.608703 8.8007812 21.095703L9 19L9.4179688 21.1875C9.5069688 21.6595 9.9184375 22 10.398438 22L13.535156 22C14.043156 22 14.471297 21.618281 14.529297 21.113281L15 17L15.964844 21.222656C16.068844 21.677656 16.473453 22 16.939453 22L18.833984 22C19.446984 22 19.916266 21.453656 19.822266 20.847656L18.833984 14.423828C18.796984 14.179828 18.586844 14 18.339844 14L5.6601562 14 z" fill="#FFFFFF" />
</svg>