<svg xmlns="http://www.w3.org/2000/svg" viewBox="0 0 32 32"><path d="M7 5C5.894531 5 5 5.894531 5 7C5 8.0625 5.828125 8.933594 6.875 9L12.375 20C10.621094 21.0625 9.398438 22.890625 9.09375 25L8 25L8 27L24 27L24 25L22.90625 25C22.601563 22.890625 21.378906 21.0625 19.625 20L25.125 9C26.171875 8.933594 27 8.0625 27 7C27 5.894531 26.105469 5 25 5C23.894531 5 23 5.894531 23 7C23 7.398438 23.109375 7.78125 23.3125 8.09375L17.75 19.25C17.1875 19.101563 16.609375 19 16 19C15.390625 19 14.8125 19.101563 14.25 19.25L8.6875 8.09375C8.890625 7.78125 9 7.398438 9 7C9 5.894531 8.105469 5 7 5 Z M 16 21C18.425781 21 20.441406 22.714844 20.90625 25L11.09375 25C11.558594 22.714844 13.574219 21 16 21Z"/></svg>