<svg xmlns="http://www.w3.org/2000/svg" viewBox="0 0 24 24"><path d="M16.857422 1.9804688C16.472672 1.9545 16.091344 2.152625 15.902344 2.515625L12.373047 9.0253906C10.738883 9.1509261 9.5055015 9.7663279 8.703125 10.683594C7.8007284 11.715201 7.4368421 12.985049 7.15625 14.181641C6.8756579 15.378232 6.673055 16.534955 6.3164062 17.388672C5.9776401 18.199583 5.5852959 18.698753 4.796875 19L3 19 A 1.0001 1.0001 0 1 0 3 21L4.9882812 21L5 21C8.4745 21 11.573211 21.05951 14.03125 19.90625C15.260269 19.329618 16.309211 18.400148 16.990234 17.083984C17.63752 15.833023 17.957269 14.256354 17.988281 12.296875L21.851562 5.5546875C22.126562 5.0576875 21.931828 4.4317344 21.423828 4.1777344L17.236328 2.0820312C17.114328 2.0210313 16.985672 1.989125 16.857422 1.9804688 z M 12.792969 11.015625L15.974609 12.605469C15.914639 14.171188 15.64256 15.339399 15.214844 16.166016C14.731648 17.099852 14.083996 17.670382 13.181641 18.09375C11.888076 18.700665 9.8996471 18.858096 7.671875 18.923828C7.8306773 18.664577 8.048868 18.431224 8.1621094 18.160156C8.6503669 16.991405 8.8439827 15.745456 9.1035156 14.638672C9.3630485 13.531888 9.6842719 12.597612 10.207031 12C10.703142 11.432853 11.401202 11.054048 12.792969 11.015625 z"/></svg>