<svg xmlns="http://www.w3.org/2000/svg" viewBox="0 0 80 80">
  <path d="M5 13L5 67L75 67L75 13 Z M 7 15L73 15L73 20.09375L42.859375 41.101563C41.140625 42.300781 38.863281 42.300781 37.140625 41.101563L7 20.09375 Z M 7.976563 23.214844L21.058594 32.328125C21.199219 32.730469 21.574219 33 22 33C22.003906 33 22.011719 33 22.015625 33L24.144531 34.484375C24.050781 34.636719 24 34.816406 24 35C24 35.550781 24.449219 36 25 36C25.304688 36 25.589844 35.859375 25.78125 35.625L27.792969 37.019531C27.328125 37.121094 27 37.527344 27 38C27 38.550781 27.449219 39 28 39C28.550781 39 29 38.550781 29 38C29 37.953125 28.996094 37.90625 28.988281 37.859375L36 42.742188C36.914063 43.378906 37.945313 43.773438 39 43.921875C39 43.949219 39 43.972656 39 44C39 44.550781 39.449219 45 40 45C40.550781 45 41 44.550781 41 44C41 43.972656 41 43.949219 40.996094 43.921875C42.054688 43.773438 43.085938 43.378906 44 42.742188L51.011719 37.859375C51.003906 37.90625 51 37.953125 51 38C51 38.550781 51.449219 39 52 39C52.550781 39 53 38.550781 53 38C53 37.527344 52.667969 37.121094 52.207031 37.023438L54.21875 35.625C54.410156 35.859375 54.695313 36 55 36C55.550781 36 56 35.550781 56 35C56 34.816406 55.949219 34.636719 55.855469 34.484375L57.984375 33C57.988281 33 57.996094 33 58 33C58.425781 33 58.804688 32.730469 58.941406 32.328125L72.023438 23.214844C72.125 23.671875 72.53125 24 73 24L73 28C72.449219 28 72 28.449219 72 29C72 29.550781 72.449219 30 73 30L73 34C72.449219 34 72 34.449219 72 35C72 35.550781 72.449219 36 73 36L73 40C72.449219 40 72 40.449219 72 41C72 41.550781 72.449219 42 73 42L73 46C72.449219 46 72 46.449219 72 47C72 47.550781 72.449219 48 73 48L73 52C72.449219 52 72 52.449219 72 53C72 53.550781 72.449219 54 73 54L73 58C72.449219 58 72 58.449219 72 59C72 59.550781 72.449219 60 73 60L73 64C72.449219 64 72 64.449219 72 65L68 65C68 64.449219 67.550781 64 67 64C66.449219 64 66 64.449219 66 65L62 65C62 64.449219 61.550781 64 61 64C60.449219 64 60 64.449219 60 65L56 65C56 64.449219 55.550781 64 55 64C54.449219 64 54 64.449219 54 65L50 65C50 64.449219 49.550781 64 49 64C48.449219 64 48 64.449219 48 65L44 65C44 64.449219 43.550781 64 43 64C42.449219 64 42 64.449219 42 65L38 65C38 64.449219 37.550781 64 37 64C36.449219 64 36 64.449219 36 65L32 65C32 64.449219 31.550781 64 31 64C30.449219 64 30 64.449219 30 65L26 65C26 64.449219 25.550781 64 25 64C24.449219 64 24 64.449219 24 65L20 65C20 64.449219 19.550781 64 19 64C18.449219 64 18 64.449219 18 65L14 65C14 64.449219 13.550781 64 13 64C12.449219 64 12 64.449219 12 65L8 65C8 64.449219 7.550781 64 7 64L7 60C7.550781 60 8 59.550781 8 59C8 58.449219 7.550781 58 7 58L7 54C7.550781 54 8 53.550781 8 53C8 52.449219 7.550781 52 7 52L7 48C7.550781 48 8 47.550781 8 47C8 46.449219 7.550781 46 7 46L7 42C7.550781 42 8 41.550781 8 41C8 40.449219 7.550781 40 7 40L7 36C7.550781 36 8 35.550781 8 35C8 34.449219 7.550781 34 7 34L7 30C7.550781 30 8 29.550781 8 29C8 28.449219 7.550781 28 7 28L7 24C7.46875 24 7.875 23.671875 7.976563 23.214844 Z M 10 25C9.449219 25 9 25.449219 9 26C9 26.550781 9.449219 27 10 27C10.550781 27 11 26.550781 11 26C11 25.449219 10.550781 25 10 25 Z M 70 25C69.449219 25 69 25.449219 69 26C69 26.550781 69.449219 27 70 27C70.550781 27 71 26.550781 71 26C71 25.449219 70.550781 25 70 25 Z M 13 28C12.449219 28 12 28.449219 12 29C12 29.550781 12.449219 30 13 30C13.550781 30 14 29.550781 14 29C14 28.449219 13.550781 28 13 28 Z M 67 28C66.449219 28 66 28.449219 66 29C66 29.550781 66.449219 30 67 30C67.550781 30 68 29.550781 68 29C68 28.449219 67.550781 28 67 28 Z M 10 31C9.449219 31 9 31.449219 9 32C9 32.550781 9.449219 33 10 33C10.550781 33 11 32.550781 11 32C11 31.449219 10.550781 31 10 31 Z M 16 31C15.449219 31 15 31.449219 15 32C15 32.550781 15.449219 33 16 33C16.550781 33 17 32.550781 17 32C17 31.449219 16.550781 31 16 31 Z M 64 31C63.449219 31 63 31.449219 63 32C63 32.550781 63.449219 33 64 33C64.550781 33 65 32.550781 65 32C65 31.449219 64.550781 31 64 31 Z M 70 31C69.449219 31 69 31.449219 69 32C69 32.550781 69.449219 33 70 33C70.550781 33 71 32.550781 71 32C71 31.449219 70.550781 31 70 31 Z M 13 34C12.449219 34 12 34.449219 12 35C12 35.550781 12.449219 36 13 36C13.550781 36 14 35.550781 14 35C14 34.449219 13.550781 34 13 34 Z M 19 34C18.449219 34 18 34.449219 18 35C18 35.550781 18.449219 36 19 36C19.550781 36 20 35.550781 20 35C20 34.449219 19.550781 34 19 34 Z M 61 34C60.449219 34 60 34.449219 60 35C60 35.550781 60.449219 36 61 36C61.550781 36 62 35.550781 62 35C62 34.449219 61.550781 34 61 34 Z M 67 34C66.449219 34 66 34.449219 66 35C66 35.550781 66.449219 36 67 36C67.550781 36 68 35.550781 68 35C68 34.449219 67.550781 34 67 34 Z M 10 37C9.449219 37 9 37.449219 9 38C9 38.550781 9.449219 39 10 39C10.550781 39 11 38.550781 11 38C11 37.449219 10.550781 37 10 37 Z M 16 37C15.449219 37 15 37.449219 15 38C15 38.550781 15.449219 39 16 39C16.550781 39 17 38.550781 17 38C17 37.449219 16.550781 37 16 37 Z M 22 37C21.449219 37 21 37.449219 21 38C21 38.550781 21.449219 39 22 39C22.550781 39 23 38.550781 23 38C23 37.449219 22.550781 37 22 37 Z M 58 37C57.449219 37 57 37.449219 57 38C57 38.550781 57.449219 39 58 39C58.550781 39 59 38.550781 59 38C59 37.449219 58.550781 37 58 37 Z M 64 37C63.449219 37 63 37.449219 63 38C63 38.550781 63.449219 39 64 39C64.550781 39 65 38.550781 65 38C65 37.449219 64.550781 37 64 37 Z M 70 37C69.449219 37 69 37.449219 69 38C69 38.550781 69.449219 39 70 39C70.550781 39 71 38.550781 71 38C71 37.449219 70.550781 37 70 37 Z M 13 40C12.449219 40 12 40.449219 12 41C12 41.550781 12.449219 42 13 42C13.550781 42 14 41.550781 14 41C14 40.449219 13.550781 40 13 40 Z M 19 40C18.449219 40 18 40.449219 18 41C18 41.550781 18.449219 42 19 42C19.550781 42 20 41.550781 20 41C20 40.449219 19.550781 40 19 40 Z M 25 40C24.449219 40 24 40.449219 24 41C24 41.550781 24.449219 42 25 42C25.550781 42 26 41.550781 26 41C26 40.449219 25.550781 40 25 40 Z M 31 40C30.449219 40 30 40.449219 30 41C30 41.550781 30.449219 42 31 42C31.550781 42 32 41.550781 32 41C32 40.449219 31.550781 40 31 40 Z M 49 40C48.449219 40 48 40.449219 48 41C48 41.550781 48.449219 42 49 42C49.550781 42 50 41.550781 50 41C50 40.449219 49.550781 40 49 40 Z M 55 40C54.449219 40 54 40.449219 54 41C54 41.550781 54.449219 42 55 42C55.550781 42 56 41.550781 56 41C56 40.449219 55.550781 40 55 40 Z M 61 40C60.449219 40 60 40.449219 60 41C60 41.550781 60.449219 42 61 42C61.550781 42 62 41.550781 62 41C62 40.449219 61.550781 40 61 40 Z M 67 40C66.449219 40 66 40.449219 66 41C66 41.550781 66.449219 42 67 42C67.550781 42 68 41.550781 68 41C68 40.449219 67.550781 40 67 40 Z M 10 43C9.449219 43 9 43.449219 9 44C9 44.550781 9.449219 45 10 45C10.550781 45 11 44.550781 11 44C11 43.449219 10.550781 43 10 43 Z M 16 43C15.449219 43 15 43.449219 15 44C15 44.550781 15.449219 45 16 45C16.550781 45 17 44.550781 17 44C17 43.449219 16.550781 43 16 43 Z M 22 43C21.449219 43 21 43.449219 21 44C21 44.550781 21.449219 45 22 45C22.550781 45 23 44.550781 23 44C23 43.449219 22.550781 43 22 43 Z M 28 43C27.449219 43 27 43.449219 27 44C27 44.550781 27.449219 45 28 45C28.550781 45 29 44.550781 29 44C29 43.449219 28.550781 43 28 43 Z M 34 43C33.449219 43 33 43.449219 33 44C33 44.550781 33.449219 45 34 45C34.550781 45 35 44.550781 35 44C35 43.449219 34.550781 43 34 43 Z M 46 43C45.449219 43 45 43.449219 45 44C45 44.550781 45.449219 45 46 45C46.550781 45 47 44.550781 47 44C47 43.449219 46.550781 43 46 43 Z M 52 43C51.449219 43 51 43.449219 51 44C51 44.550781 51.449219 45 52 45C52.550781 45 53 44.550781 53 44C53 43.449219 52.550781 43 52 43 Z M 58 43C57.449219 43 57 43.449219 57 44C57 44.550781 57.449219 45 58 45C58.550781 45 59 44.550781 59 44C59 43.449219 58.550781 43 58 43 Z M 64 43C63.449219 43 63 43.449219 63 44C63 44.550781 63.449219 45 64 45C64.550781 45 65 44.550781 65 44C65 43.449219 64.550781 43 64 43 Z M 70 43C69.449219 43 69 43.449219 69 44C69 44.550781 69.449219 45 70 45C70.550781 45 71 44.550781 71 44C71 43.449219 70.550781 43 70 43 Z M 13 46C12.449219 46 12 46.449219 12 47C12 47.550781 12.449219 48 13 48C13.550781 48 14 47.550781 14 47C14 46.449219 13.550781 46 13 46 Z M 19 46C18.449219 46 18 46.449219 18 47C18 47.550781 18.449219 48 19 48C19.550781 48 20 47.550781 20 47C20 46.449219 19.550781 46 19 46 Z M 25 46C24.449219 46 24 46.449219 24 47C24 47.550781 24.449219 48 25 48C25.550781 48 26 47.550781 26 47C26 46.449219 25.550781 46 25 46 Z M 31 46C30.449219 46 30 46.449219 30 47C30 47.550781 30.449219 48 31 48C31.550781 48 32 47.550781 32 47C32 46.449219 31.550781 46 31 46 Z M 37 46C36.449219 46 36 46.449219 36 47C36 47.550781 36.449219 48 37 48C37.550781 48 38 47.550781 38 47C38 46.449219 37.550781 46 37 46 Z M 43 46C42.449219 46 42 46.449219 42 47C42 47.550781 42.449219 48 43 48C43.550781 48 44 47.550781 44 47C44 46.449219 43.550781 46 43 46 Z M 49 46C48.449219 46 48 46.449219 48 47C48 47.550781 48.449219 48 49 48C49.550781 48 50 47.550781 50 47C50 46.449219 49.550781 46 49 46 Z M 55 46C54.449219 46 54 46.449219 54 47C54 47.550781 54.449219 48 55 48C55.550781 48 56 47.550781 56 47C56 46.449219 55.550781 46 55 46 Z M 61 46C60.449219 46 60 46.449219 60 47C60 47.550781 60.449219 48 61 48C61.550781 48 62 47.550781 62 47C62 46.449219 61.550781 46 61 46 Z M 67 46C66.449219 46 66 46.449219 66 47C66 47.550781 66.449219 48 67 48C67.550781 48 68 47.550781 68 47C68 46.449219 67.550781 46 67 46 Z M 10 49C9.449219 49 9 49.449219 9 50C9 50.550781 9.449219 51 10 51C10.550781 51 11 50.550781 11 50C11 49.449219 10.550781 49 10 49 Z M 16 49C15.449219 49 15 49.449219 15 50C15 50.550781 15.449219 51 16 51C16.550781 51 17 50.550781 17 50C17 49.449219 16.550781 49 16 49 Z M 22 49C21.449219 49 21 49.449219 21 50C21 50.550781 21.449219 51 22 51C22.550781 51 23 50.550781 23 50C23 49.449219 22.550781 49 22 49 Z M 28 49C27.449219 49 27 49.449219 27 50C27 50.550781 27.449219 51 28 51C28.550781 51 29 50.550781 29 50C29 49.449219 28.550781 49 28 49 Z M 34 49C33.449219 49 33 49.449219 33 50C33 50.550781 33.449219 51 34 51C34.550781 51 35 50.550781 35 50C35 49.449219 34.550781 49 34 49 Z M 40 49C39.449219 49 39 49.449219 39 50C39 50.550781 39.449219 51 40 51C40.550781 51 41 50.550781 41 50C41 49.449219 40.550781 49 40 49 Z M 46 49C45.449219 49 45 49.449219 45 50C45 50.550781 45.449219 51 46 51C46.550781 51 47 50.550781 47 50C47 49.449219 46.550781 49 46 49 Z M 52 49C51.449219 49 51 49.449219 51 50C51 50.550781 51.449219 51 52 51C52.550781 51 53 50.550781 53 50C53 49.449219 52.550781 49 52 49 Z M 58 49C57.449219 49 57 49.449219 57 50C57 50.550781 57.449219 51 58 51C58.550781 51 59 50.550781 59 50C59 49.449219 58.550781 49 58 49 Z M 64 49C63.449219 49 63 49.449219 63 50C63 50.550781 63.449219 51 64 51C64.550781 51 65 50.550781 65 50C65 49.449219 64.550781 49 64 49 Z M 70 49C69.449219 49 69 49.449219 69 50C69 50.550781 69.449219 51 70 51C70.550781 51 71 50.550781 71 50C71 49.449219 70.550781 49 70 49 Z M 13 52C12.449219 52 12 52.449219 12 53C12 53.550781 12.449219 54 13 54C13.550781 54 14 53.550781 14 53C14 52.449219 13.550781 52 13 52 Z M 19 52C18.449219 52 18 52.449219 18 53C18 53.550781 18.449219 54 19 54C19.550781 54 20 53.550781 20 53C20 52.449219 19.550781 52 19 52 Z M 25 52C24.449219 52 24 52.449219 24 53C24 53.550781 24.449219 54 25 54C25.550781 54 26 53.550781 26 53C26 52.449219 25.550781 52 25 52 Z M 31 52C30.449219 52 30 52.449219 30 53C30 53.550781 30.449219 54 31 54C31.550781 54 32 53.550781 32 53C32 52.449219 31.550781 52 31 52 Z M 37 52C36.449219 52 36 52.449219 36 53C36 53.550781 36.449219 54 37 54C37.550781 54 38 53.550781 38 53C38 52.449219 37.550781 52 37 52 Z M 43 52C42.449219 52 42 52.449219 42 53C42 53.550781 42.449219 54 43 54C43.550781 54 44 53.550781 44 53C44 52.449219 43.550781 52 43 52 Z M 49 52C48.449219 52 48 52.449219 48 53C48 53.550781 48.449219 54 49 54C49.550781 54 50 53.550781 50 53C50 52.449219 49.550781 52 49 52 Z M 55 52C54.449219 52 54 52.449219 54 53C54 53.550781 54.449219 54 55 54C55.550781 54 56 53.550781 56 53C56 52.449219 55.550781 52 55 52 Z M 61 52C60.449219 52 60 52.449219 60 53C60 53.550781 60.449219 54 61 54C61.550781 54 62 53.550781 62 53C62 52.449219 61.550781 52 61 52 Z M 67 52C66.449219 52 66 52.449219 66 53C66 53.550781 66.449219 54 67 54C67.550781 54 68 53.550781 68 53C68 52.449219 67.550781 52 67 52 Z M 10 55C9.449219 55 9 55.449219 9 56C9 56.550781 9.449219 57 10 57C10.550781 57 11 56.550781 11 56C11 55.449219 10.550781 55 10 55 Z M 16 55C15.449219 55 15 55.449219 15 56C15 56.550781 15.449219 57 16 57C16.550781 57 17 56.550781 17 56C17 55.449219 16.550781 55 16 55 Z M 22 55C21.449219 55 21 55.449219 21 56C21 56.550781 21.449219 57 22 57C22.550781 57 23 56.550781 23 56C23 55.449219 22.550781 55 22 55 Z M 28 55C27.449219 55 27 55.449219 27 56C27 56.550781 27.449219 57 28 57C28.550781 57 29 56.550781 29 56C29 55.449219 28.550781 55 28 55 Z M 34 55C33.449219 55 33 55.449219 33 56C33 56.550781 33.449219 57 34 57C34.550781 57 35 56.550781 35 56C35 55.449219 34.550781 55 34 55 Z M 40 55C39.449219 55 39 55.449219 39 56C39 56.550781 39.449219 57 40 57C40.550781 57 41 56.550781 41 56C41 55.449219 40.550781 55 40 55 Z M 46 55C45.449219 55 45 55.449219 45 56C45 56.550781 45.449219 57 46 57C46.550781 57 47 56.550781 47 56C47 55.449219 46.550781 55 46 55 Z M 52 55C51.449219 55 51 55.449219 51 56C51 56.550781 51.449219 57 52 57C52.550781 57 53 56.550781 53 56C53 55.449219 52.550781 55 52 55 Z M 58 55C57.449219 55 57 55.449219 57 56C57 56.550781 57.449219 57 58 57C58.550781 57 59 56.550781 59 56C59 55.449219 58.550781 55 58 55 Z M 64 55C63.449219 55 63 55.449219 63 56C63 56.550781 63.449219 57 64 57C64.550781 57 65 56.550781 65 56C65 55.449219 64.550781 55 64 55 Z M 70 55C69.449219 55 69 55.449219 69 56C69 56.550781 69.449219 57 70 57C70.550781 57 71 56.550781 71 56C71 55.449219 70.550781 55 70 55 Z M 13 58C12.449219 58 12 58.449219 12 59C12 59.550781 12.449219 60 13 60C13.550781 60 14 59.550781 14 59C14 58.449219 13.550781 58 13 58 Z M 19 58C18.449219 58 18 58.449219 18 59C18 59.550781 18.449219 60 19 60C19.550781 60 20 59.550781 20 59C20 58.449219 19.550781 58 19 58 Z M 25 58C24.449219 58 24 58.449219 24 59C24 59.550781 24.449219 60 25 60C25.550781 60 26 59.550781 26 59C26 58.449219 25.550781 58 25 58 Z M 31 58C30.449219 58 30 58.449219 30 59C30 59.550781 30.449219 60 31 60C31.550781 60 32 59.550781 32 59C32 58.449219 31.550781 58 31 58 Z M 37 58C36.449219 58 36 58.449219 36 59C36 59.550781 36.449219 60 37 60C37.550781 60 38 59.550781 38 59C38 58.449219 37.550781 58 37 58 Z M 43 58C42.449219 58 42 58.449219 42 59C42 59.550781 42.449219 60 43 60C43.550781 60 44 59.550781 44 59C44 58.449219 43.550781 58 43 58 Z M 49 58C48.449219 58 48 58.449219 48 59C48 59.550781 48.449219 60 49 60C49.550781 60 50 59.550781 50 59C50 58.449219 49.550781 58 49 58 Z M 55 58C54.449219 58 54 58.449219 54 59C54 59.550781 54.449219 60 55 60C55.550781 60 56 59.550781 56 59C56 58.449219 55.550781 58 55 58 Z M 61 58C60.449219 58 60 58.449219 60 59C60 59.550781 60.449219 60 61 60C61.550781 60 62 59.550781 62 59C62 58.449219 61.550781 58 61 58 Z M 67 58C66.449219 58 66 58.449219 66 59C66 59.550781 66.449219 60 67 60C67.550781 60 68 59.550781 68 59C68 58.449219 67.550781 58 67 58 Z M 10 61C9.449219 61 9 61.449219 9 62C9 62.550781 9.449219 63 10 63C10.550781 63 11 62.550781 11 62C11 61.449219 10.550781 61 10 61 Z M 16 61C15.449219 61 15 61.449219 15 62C15 62.550781 15.449219 63 16 63C16.550781 63 17 62.550781 17 62C17 61.449219 16.550781 61 16 61 Z M 22 61C21.449219 61 21 61.449219 21 62C21 62.550781 21.449219 63 22 63C22.550781 63 23 62.550781 23 62C23 61.449219 22.550781 61 22 61 Z M 28 61C27.449219 61 27 61.449219 27 62C27 62.550781 27.449219 63 28 63C28.550781 63 29 62.550781 29 62C29 61.449219 28.550781 61 28 61 Z M 34 61C33.449219 61 33 61.449219 33 62C33 62.550781 33.449219 63 34 63C34.550781 63 35 62.550781 35 62C35 61.449219 34.550781 61 34 61 Z M 40 61C39.449219 61 39 61.449219 39 62C39 62.550781 39.449219 63 40 63C40.550781 63 41 62.550781 41 62C41 61.449219 40.550781 61 40 61 Z M 46 61C45.449219 61 45 61.449219 45 62C45 62.550781 45.449219 63 46 63C46.550781 63 47 62.550781 47 62C47 61.449219 46.550781 61 46 61 Z M 52 61C51.449219 61 51 61.449219 51 62C51 62.550781 51.449219 63 52 63C52.550781 63 53 62.550781 53 62C53 61.449219 52.550781 61 52 61 Z M 58 61C57.449219 61 57 61.449219 57 62C57 62.550781 57.449219 63 58 63C58.550781 63 59 62.550781 59 62C59 61.449219 58.550781 61 58 61 Z M 64 61C63.449219 61 63 61.449219 63 62C63 62.550781 63.449219 63 64 63C64.550781 63 65 62.550781 65 62C65 61.449219 64.550781 61 64 61 Z M 70 61C69.449219 61 69 61.449219 69 62C69 62.550781 69.449219 63 70 63C70.550781 63 71 62.550781 71 62C71 61.449219 70.550781 61 70 61Z" fill="#787C7F" />
</svg>