<svg xmlns="http://www.w3.org/2000/svg" viewBox="0 0 32 32">
  <path d="M10 5L10 6.9003906L4.0078125 10.802734L4.0078125 27L27.992188 27L27.992188 10.802734L22 6.8984375L22 5L10 5 z M 12 7L20 7L20 14.681641L16 17.273438L12 14.681641L12 7 z M 13 9L13 11L19 11L19 9L13 9 z M 10 9.2851562L10 13.386719L6.84375 11.341797L10 9.2851562 z M 22 9.2851562L25.15625 11.341797L22 13.386719L22 9.2851562 z M 13 12L13 14L19 14L19 12L13 12 z M 6.0078125 13.183594L16 19.65625L25.992188 13.183594L25.992188 25L6.0078125 25L6.0078125 13.183594 z" fill="#787C7F" />
</svg>