<svg xmlns="http://www.w3.org/2000/svg" viewBox="0 0 50 50">
  <path d="M3.8125 2C3.335938 2.089844 2.992188 2.511719 3 3L3 6C3.003906 6.257813 3.101563 6.503906 3.28125 6.6875L19 23.375L19 41C19.007813 41.347656 19.199219 41.667969 19.5 41.84375L29.5 47.84375C29.804688 48.019531 30.183594 48.023438 30.492188 47.847656C30.796875 47.675781 30.992188 47.351563 31 47L31 23.375L46.5625 6.84375C46.574219 6.832031 46.582031 6.824219 46.59375 6.8125L46.71875 6.6875C46.765625 6.640625 46.808594 6.585938 46.84375 6.53125C46.867188 6.511719 46.886719 6.492188 46.90625 6.46875C46.964844 6.339844 46.996094 6.203125 47 6.0625C47 6.042969 47 6.019531 47 6C47.003906 5.949219 47.003906 5.894531 47 5.84375L47 3C47 2.449219 46.550781 2 46 2L4 2C3.96875 2 3.9375 2 3.90625 2C3.875 2 3.84375 2 3.8125 2 Z M 5 4L45 4L45 5.625L29.5625 22L20.4375 22L5 5.625 Z M 21 24L29 24L29 45.25L21 40.46875Z" fill="#787C7F" />
</svg>