<svg xmlns="http://www.w3.org/2000/svg" viewBox="0 0 30 30"><path d="M10.984375 3.9863281 A 1.0001 1.0001 0 0 0 10.019531 4.8046875L9.3808594 8L6 8 A 1.0001 1.0001 0 1 0 6 10L8.9804688 10L6.9804688 20L4 20 A 1.0001 1.0001 0 1 0 4 22L6.5800781 22L6.0195312 24.804688 A 1.0001 1.0001 0 1 0 7.9804688 25.195312L8.6191406 22L18.580078 22L18.019531 24.804688 A 1.0001 1.0001 0 1 0 19.980469 25.195312L20.619141 22L24 22 A 1.0001 1.0001 0 1 0 24 20L21.019531 20L23.019531 10L26 10 A 1.0001 1.0001 0 1 0 26 8L23.419922 8L23.980469 5.1953125 A 1.0001 1.0001 0 0 0 22.984375 3.9863281 A 1.0001 1.0001 0 0 0 22.019531 4.8046875L21.380859 8L11.419922 8L11.980469 5.1953125 A 1.0001 1.0001 0 0 0 10.984375 3.9863281 z M 11.019531 10L20.980469 10L18.980469 20L9.0195312 20L11.019531 10 z"/></svg>