<svg xmlns="http://www.w3.org/2000/svg" viewBox="0 0 80 80">
  <path d="M34 10C31.800781 10 30 11.800781 30 14L30 66C30 68.199219 31.800781 70 34 70L64 70C66.199219 70 68 68.199219 68 66L68 14C68 11.800781 66.199219 10 64 10 Z M 34 12L64 12C65.117188 12 66 12.882813 66 14L66 18L32 18L32 14C32 12.882813 32.882813 12 34 12 Z M 45 14C44.640625 13.996094 44.304688 14.183594 44.121094 14.496094C43.941406 14.808594 43.941406 15.191406 44.121094 15.503906C44.304688 15.816406 44.640625 16.003906 45 16L53 16C53.359375 16.003906 53.695313 15.816406 53.878906 15.503906C54.058594 15.191406 54.058594 14.808594 53.878906 14.496094C53.695313 14.183594 53.359375 13.996094 53 14 Z M 40.949219 14C40.398438 14 39.949219 14.449219 39.949219 15C39.945313 15.550781 40.394531 16 40.945313 16C41.210938 16.003906 41.464844 15.898438 41.652344 15.710938C41.839844 15.523438 41.949219 15.265625 41.949219 15C41.949219 14.449219 41.5 14.003906 40.949219 14 Z M 16 15C13.800781 15 12 16.800781 12 19L12 62C12 64.199219 13.800781 66 16 66L28 66L28 64L16 64C14.882813 64 14 63.117188 14 62L14 19C14 17.882813 14.882813 17 16 17L28 17L28 15 Z M 24 20C23.449219 20 23 20.449219 23 21C23 21.550781 23.449219 22 24 22L28 22L28 20 Z M 32 20L66 20L66 58L32 58 Z M 36 22C35.449219 22 35 22.449219 35 23C35 23.550781 35.449219 24 36 24C36.550781 24 37 23.550781 37 23C37 22.449219 36.550781 22 36 22 Z M 18 23C17.449219 23 17 23.449219 17 24C17 24.550781 17.449219 25 18 25C18.550781 25 19 24.550781 19 24C19 23.449219 18.550781 23 18 23 Z M 36 26C35.449219 26 35 26.449219 35 27C35 27.550781 35.449219 28 36 28C36.550781 28 37 27.550781 37 27C37 26.449219 36.550781 26 36 26 Z M 18 27C17.449219 27 17 27.449219 17 28C17 28.550781 17.449219 29 18 29C18.550781 29 19 28.550781 19 28C19 27.449219 18.550781 27 18 27 Z M 36 30C35.449219 30 35 30.449219 35 31C35 31.550781 35.449219 32 36 32C36.550781 32 37 31.550781 37 31C37 30.449219 36.550781 30 36 30 Z M 18 31C17.449219 31 17 31.449219 17 32C17 32.550781 17.449219 33 18 33C18.550781 33 19 32.550781 19 32C19 31.449219 18.550781 31 18 31 Z M 36 34C35.449219 34 35 34.449219 35 35C35 35.550781 35.449219 36 36 36C36.550781 36 37 35.550781 37 35C37 34.449219 36.550781 34 36 34 Z M 18 35C17.449219 35 17 35.449219 17 36C17 36.550781 17.449219 37 18 37C18.550781 37 19 36.550781 19 36C19 35.449219 18.550781 35 18 35 Z M 36 38C35.449219 38 35 38.449219 35 39C35 39.550781 35.449219 40 36 40C36.550781 40 37 39.550781 37 39C37 38.449219 36.550781 38 36 38 Z M 18 39C17.449219 39 17 39.449219 17 40C17 40.550781 17.449219 41 18 41C18.550781 41 19 40.550781 19 40C19 39.449219 18.550781 39 18 39 Z M 36 42C35.449219 42 35 42.449219 35 43C35 43.550781 35.449219 44 36 44C36.550781 44 37 43.550781 37 43C37 42.449219 36.550781 42 36 42 Z M 18 43C17.449219 43 17 43.449219 17 44C17 44.550781 17.449219 45 18 45C18.550781 45 19 44.550781 19 44C19 43.449219 18.550781 43 18 43 Z M 36 46C35.449219 46 35 46.449219 35 47C35 47.550781 35.449219 48 36 48C36.550781 48 37 47.550781 37 47C37 46.449219 36.550781 46 36 46 Z M 18 47C17.449219 47 17 47.449219 17 48C17 48.550781 17.449219 49 18 49C18.550781 49 19 48.550781 19 48C19 47.449219 18.550781 47 18 47 Z M 36 50C35.449219 50 35 50.449219 35 51C35 51.550781 35.449219 52 36 52C36.550781 52 37 51.550781 37 51C37 50.449219 36.550781 50 36 50 Z M 18 51C17.449219 51 17 51.449219 17 52C17 52.550781 17.449219 53 18 53C18.550781 53 19 52.550781 19 52C19 51.449219 18.550781 51 18 51 Z M 36 54C35.449219 54 35 54.449219 35 55C35 55.550781 35.449219 56 36 56C36.550781 56 37 55.550781 37 55C37 54.449219 36.550781 54 36 54 Z M 18 55C17.449219 55 17 55.449219 17 56C17 56.550781 17.449219 57 18 57C18.550781 57 19 56.550781 19 56C19 55.449219 18.550781 55 18 55 Z M 24 59C23.449219 59 23 59.449219 23 60C23 60.550781 23.449219 61 24 61L28 61L28 59 Z M 32 60L66 60L66 66C66 67.117188 65.117188 68 64 68L34 68C32.882813 68 32 67.117188 32 66 Z M 49 62C47.894531 62 47 62.894531 47 64C47 65.105469 47.894531 66 49 66C50.105469 66 51 65.105469 51 64C51 62.894531 50.105469 62 49 62Z" fill="#787C7F" />
</svg>