<svg xmlns="http://www.w3.org/2000/svg" viewBox="0 0 16 16">
  <path d="M1.5 2C0.6774686 2 0 2.6774686 0 3.5L0 10.5C0 11.322531 0.6774686 12 1.5 12L14.5 12C15.322531 12 16 11.322531 16 10.5L16 3.5C16 2.6774686 15.322531 2 14.5 2L1.5 2 z M 1.5 3L14.5 3C14.781469 3 15 3.2185314 15 3.5L15 10.5C15 10.781469 14.781469 11 14.5 11L1.5 11C1.2185314 11 1 10.781469 1 10.5L1 3.5C1 3.2185314 1.2185314 3 1.5 3 z M 14 3.96875L2 8.9492188L2 10.03125L14 5.0507812L14 3.96875 z M 5 13L5 14L11 14L11 13L5 13 z" fill="#787C7F" />
</svg>