<svg xmlns="http://www.w3.org/2000/svg" viewBox="0 0 80 80">
  <path d="M6 12L6 68L74 68L74 12 Z M 8 14L72 14L72 56.371094L67.628906 52.777344C67.863281 52.585938 68 52.300781 68 52C68 51.449219 67.550781 51 67 51C66.628906 51 66.289063 51.207031 66.113281 51.535156L59.902344 46.429688C59.964844 46.296875 60 46.148438 60 46C60 45.449219 59.550781 45 59 45C58.785156 45 58.578125 45.070313 58.40625 45.199219L56.941406 44C56.960938 44 56.980469 44 57 44C57.550781 44 58 43.550781 58 43C58 42.449219 57.550781 42 57 42C56.449219 42 56 42.449219 56 43C56 43.085938 56.011719 43.167969 56.03125 43.25L52.292969 40.175781L51.859375 40.515625C51.949219 40.359375 52 40.179688 52 40C52 39.449219 51.550781 39 51 39C50.449219 39 50 39.449219 50 40C50 40.550781 50.449219 41 51 41C51.097656 41 51.191406 40.984375 51.285156 40.957031L49.640625 42.234375C49.460938 42.082031 49.234375 42 49 42C48.449219 42 48 42.449219 48 43C48 43.148438 48.035156 43.296875 48.101563 43.433594L41.765625 48.359375C41.765625 48.355469 41.765625 48.355469 41.765625 48.355469C41.574219 48.128906 41.296875 48 41 48C40.710938 48 40.4375 48.125 40.25 48.34375L38.539063 46.886719C38.679688 46.960938 38.839844 47 39 47C39.550781 47 40 46.550781 40 46C40 45.449219 39.550781 45 39 45C38.449219 45 38 45.449219 38 46C38 46.214844 38.070313 46.421875 38.199219 46.59375L34 43.023438C34 43.015625 34 43.007813 34 43C34 42.449219 33.550781 42 33 42C32.9375 42 32.875 42.007813 32.816406 42.015625L31.480469 40.875C31.800781 40.703125 32 40.367188 32 40C32 39.449219 31.550781 39 31 39C30.574219 39 30.195313 39.269531 30.058594 39.671875L27.804688 37.753906L23.964844 40.265625C23.988281 40.179688 24 40.089844 24 40C24 39.449219 23.550781 39 23 39C22.449219 39 22 39.449219 22 40C22 40.496094 22.367188 40.921875 22.859375 40.988281L21.261719 42.035156C21.175781 42.011719 21.089844 42 21 42C20.503906 42 20.085938 42.363281 20.011719 42.855469L15.890625 45.546875C15.722656 45.210938 15.375 45 15 45C14.449219 45 14 45.449219 14 46C14 46.230469 14.082031 46.457031 14.230469 46.636719L9.875 49.484375C9.957031 49.335938 10 49.171875 10 49C10 48.449219 9.550781 48 9 48C8.449219 48 8 48.449219 8 49C8 49.550781 8.449219 50 9 50C9.03125 50 9.0625 49.996094 9.09375 49.996094L8 50.710938 Z M 8 37C8 37.550781 8.449219 38 9 38C9.550781 38 10 37.550781 10 37C10 36.449219 9.550781 36 9 36C8.449219 36 8 36.449219 8 37 Z M 8 43C8 43.550781 8.449219 44 9 44C9.550781 44 10 43.550781 10 43C10 42.449219 9.550781 42 9 42C8.449219 42 8 42.449219 8 43 Z M 72 52C72 51.449219 71.550781 51 71 51C70.449219 51 70 51.449219 70 52C70 52.550781 70.449219 53 71 53C71.550781 53 72 52.550781 72 52 Z M 72 46C72 45.449219 71.550781 45 71 45C70.449219 45 70 45.449219 70 46C70 46.550781 70.449219 47 71 47C71.550781 47 72 46.550781 72 46 Z M 72 40C72 39.449219 71.550781 39 71 39C70.449219 39 70 39.449219 70 40C70 40.550781 70.449219 41 71 41C71.550781 41 72 40.550781 72 40 Z M 21 30C20.449219 30 20 30.449219 20 31C20 31.550781 20.449219 32 21 32C21.550781 32 22 31.550781 22 31C22 30.449219 21.550781 30 21 30 Z M 25 30C24.449219 30 24 30.449219 24 31C24 31.550781 24.449219 32 25 32C25.550781 32 26 31.550781 26 31C26 30.449219 25.550781 30 25 30 Z M 37 30C36.449219 30 36 30.449219 36 31C36 31.550781 36.449219 32 37 32C37.550781 32 38 31.550781 38 31C38 30.449219 37.550781 30 37 30 Z M 41 30C40.449219 30 40 30.449219 40 31C40 31.550781 40.449219 32 41 32C41.550781 32 42 31.550781 42 31C42 30.449219 41.550781 30 41 30 Z M 53 30C52.449219 30 52 30.449219 52 31C52 31.550781 52.449219 32 53 32C53.550781 32 54 31.550781 54 31C54 30.449219 53.550781 30 53 30 Z M 57 30C56.449219 30 56 30.449219 56 31C56 31.550781 56.449219 32 57 32C57.550781 32 58 31.550781 58 31C58 30.449219 57.550781 30 57 30 Z M 11 33C10.449219 33 10 33.449219 10 34C10 34.550781 10.449219 35 11 35C11.550781 35 12 34.550781 12 34C12 33.449219 11.550781 33 11 33 Z M 19 33C18.449219 33 18 33.449219 18 34C18 34.550781 18.449219 35 19 35C19.550781 35 20 34.550781 20 34C20 33.449219 19.550781 33 19 33 Z M 23 33C22.449219 33 22 33.449219 22 34C22 34.550781 22.449219 35 23 35C23.550781 35 24 34.550781 24 34C24 33.449219 23.550781 33 23 33 Z M 27 33C26.449219 33 26 33.449219 26 34C26 34.550781 26.449219 35 27 35C27.550781 35 28 34.550781 28 34C28 33.449219 27.550781 33 27 33 Z M 31 33C30.449219 33 30 33.449219 30 34C30 34.550781 30.449219 35 31 35C31.550781 35 32 34.550781 32 34C32 33.449219 31.550781 33 31 33 Z M 35 33C34.449219 33 34 33.449219 34 34C34 34.550781 34.449219 35 35 35C35.550781 35 36 34.550781 36 34C36 33.449219 35.550781 33 35 33 Z M 39 33C38.449219 33 38 33.449219 38 34C38 34.550781 38.449219 35 39 35C39.550781 35 40 34.550781 40 34C40 33.449219 39.550781 33 39 33 Z M 43 33C42.449219 33 42 33.449219 42 34C42 34.550781 42.449219 35 43 35C43.550781 35 44 34.550781 44 34C44 33.449219 43.550781 33 43 33 Z M 47 33C46.449219 33 46 33.449219 46 34C46 34.550781 46.449219 35 47 35C47.550781 35 48 34.550781 48 34C48 33.449219 47.550781 33 47 33 Z M 51 33C50.449219 33 50 33.449219 50 34C50 34.550781 50.449219 35 51 35C51.550781 35 52 34.550781 52 34C52 33.449219 51.550781 33 51 33 Z M 55 33C54.449219 33 54 33.449219 54 34C54 34.550781 54.449219 35 55 35C55.550781 35 56 34.550781 56 34C56 33.449219 55.550781 33 55 33 Z M 59 33C58.449219 33 58 33.449219 58 34C58 34.550781 58.449219 35 59 35C59.550781 35 60 34.550781 60 34C60 33.449219 59.550781 33 59 33 Z M 67 33C66.449219 33 66 33.449219 66 34C66 34.550781 66.449219 35 67 35C67.550781 35 68 34.550781 68 34C68 33.449219 67.550781 33 67 33 Z M 13 36C12.449219 36 12 36.449219 12 37C12 37.550781 12.449219 38 13 38C13.550781 38 14 37.550781 14 37C14 36.449219 13.550781 36 13 36 Z M 17 36C16.449219 36 16 36.449219 16 37C16 37.550781 16.449219 38 17 38C17.550781 38 18 37.550781 18 37C18 36.449219 17.550781 36 17 36 Z M 21 36C20.449219 36 20 36.449219 20 37C20 37.550781 20.449219 38 21 38C21.550781 38 22 37.550781 22 37C22 36.449219 21.550781 36 21 36 Z M 25 36C24.449219 36 24 36.449219 24 37C24 37.550781 24.449219 38 25 38C25.550781 38 26 37.550781 26 37C26 36.449219 25.550781 36 25 36 Z M 29 36C28.449219 36 28 36.449219 28 37C28 37.550781 28.449219 38 29 38C29.550781 38 30 37.550781 30 37C30 36.449219 29.550781 36 29 36 Z M 33 36C32.449219 36 32 36.449219 32 37C32 37.550781 32.449219 38 33 38C33.550781 38 34 37.550781 34 37C34 36.449219 33.550781 36 33 36 Z M 37 36C36.449219 36 36 36.449219 36 37C36 37.550781 36.449219 38 37 38C37.550781 38 38 37.550781 38 37C38 36.449219 37.550781 36 37 36 Z M 41 36C40.449219 36 40 36.449219 40 37C40 37.550781 40.449219 38 41 38C41.550781 38 42 37.550781 42 37C42 36.449219 41.550781 36 41 36 Z M 45 36C44.449219 36 44 36.449219 44 37C44 37.550781 44.449219 38 45 38C45.550781 38 46 37.550781 46 37C46 36.449219 45.550781 36 45 36 Z M 49 36C48.449219 36 48 36.449219 48 37C48 37.550781 48.449219 38 49 38C49.550781 38 50 37.550781 50 37C50 36.449219 49.550781 36 49 36 Z M 53 36C52.449219 36 52 36.449219 52 37C52 37.550781 52.449219 38 53 38C53.550781 38 54 37.550781 54 37C54 36.449219 53.550781 36 53 36 Z M 57 36C56.449219 36 56 36.449219 56 37C56 37.550781 56.449219 38 57 38C57.550781 38 58 37.550781 58 37C58 36.449219 57.550781 36 57 36 Z M 61 36C60.449219 36 60 36.449219 60 37C60 37.550781 60.449219 38 61 38C61.550781 38 62 37.550781 62 37C62 36.449219 61.550781 36 61 36 Z M 65 36C64.449219 36 64 36.449219 64 37C64 37.550781 64.449219 38 65 38C65.550781 38 66 37.550781 66 37C66 36.449219 65.550781 36 65 36 Z M 69 36C68.449219 36 68 36.449219 68 37C68 37.550781 68.449219 38 69 38C69.550781 38 70 37.550781 70 37C70 36.449219 69.550781 36 69 36 Z M 11 39C10.449219 39 10 39.449219 10 40C10 40.550781 10.449219 41 11 41C11.550781 41 12 40.550781 12 40C12 39.449219 11.550781 39 11 39 Z M 15 39C14.449219 39 14 39.449219 14 40C14 40.550781 14.449219 41 15 41C15.550781 41 16 40.550781 16 40C16 39.449219 15.550781 39 15 39 Z M 19 39C18.449219 39 18 39.449219 18 40C18 40.550781 18.449219 41 19 41C19.550781 41 20 40.550781 20 40C20 39.449219 19.550781 39 19 39 Z M 35 39C34.449219 39 34 39.449219 34 40C34 40.550781 34.449219 41 35 41C35.550781 41 36 40.550781 36 40C36 39.449219 35.550781 39 35 39 Z M 39 39C38.449219 39 38 39.449219 38 40C38 40.550781 38.449219 41 39 41C39.550781 41 40 40.550781 40 40C40 39.449219 39.550781 39 39 39 Z M 43 39C42.449219 39 42 39.449219 42 40C42 40.550781 42.449219 41 43 41C43.550781 41 44 40.550781 44 40C44 39.449219 43.550781 39 43 39 Z M 47 39C46.449219 39 46 39.449219 46 40C46 40.550781 46.449219 41 47 41C47.550781 41 48 40.550781 48 40C48 39.449219 47.550781 39 47 39 Z M 55 39C54.449219 39 54 39.449219 54 40C54 40.550781 54.449219 41 55 41C55.550781 41 56 40.550781 56 40C56 39.449219 55.550781 39 55 39 Z M 59 39C58.449219 39 58 39.449219 58 40C58 40.550781 58.449219 41 59 41C59.550781 41 60 40.550781 60 40C60 39.449219 59.550781 39 59 39 Z M 63 39C62.449219 39 62 39.449219 62 40C62 40.550781 62.449219 41 63 41C63.550781 41 64 40.550781 64 40C64 39.449219 63.550781 39 63 39 Z M 67 39C66.449219 39 66 39.449219 66 40C66 40.550781 66.449219 41 67 41C67.550781 41 68 40.550781 68 40C68 39.449219 67.550781 39 67 39 Z M 27.648438 40.246094L57.917969 66L8 66L8 53.097656 Z M 13 42C12.449219 42 12 42.449219 12 43C12 43.550781 12.449219 44 13 44C13.550781 44 14 43.550781 14 43C14 42.449219 13.550781 42 13 42 Z M 17 42C16.449219 42 16 42.449219 16 43C16 43.550781 16.449219 44 17 44C17.550781 44 18 43.550781 18 43C18 42.449219 17.550781 42 17 42 Z M 37 42C36.449219 42 36 42.449219 36 43C36 43.550781 36.449219 44 37 44C37.550781 44 38 43.550781 38 43C38 42.449219 37.550781 42 37 42 Z M 41 42C40.449219 42 40 42.449219 40 43C40 43.550781 40.449219 44 41 44C41.550781 44 42 43.550781 42 43C42 42.449219 41.550781 42 41 42 Z M 45 42C44.449219 42 44 42.449219 44 43C44 43.550781 44.449219 44 45 44C45.550781 44 46 43.550781 46 43C46 42.449219 45.550781 42 45 42 Z M 61 42C60.449219 42 60 42.449219 60 43C60 43.550781 60.449219 44 61 44C61.550781 44 62 43.550781 62 43C62 42.449219 61.550781 42 61 42 Z M 65 42C64.449219 42 64 42.449219 64 43C64 43.550781 64.449219 44 65 44C65.550781 44 66 43.550781 66 43C66 42.449219 65.550781 42 65 42 Z M 69 42C68.449219 42 68 42.449219 68 43C68 43.550781 68.449219 44 69 44C69.550781 44 70 43.550781 70 43C70 42.449219 69.550781 42 69 42 Z M 52.253906 42.734375L72 58.957031L72 66L61.003906 66L42.539063 50.292969 Z M 11 45C10.449219 45 10 45.449219 10 46C10 46.550781 10.449219 47 11 47C11.550781 47 12 46.550781 12 46C12 45.449219 11.550781 45 11 45 Z M 43 45C42.449219 45 42 45.449219 42 46C42 46.550781 42.449219 47 43 47C43.550781 47 44 46.550781 44 46C44 45.449219 43.550781 45 43 45 Z M 63 45C62.449219 45 62 45.449219 62 46C62 46.550781 62.449219 47 63 47C63.550781 47 64 46.550781 64 46C64 45.449219 63.550781 45 63 45 Z M 67 45C66.449219 45 66 45.449219 66 46C66 46.550781 66.449219 47 67 47C67.550781 47 68 46.550781 68 46C68 45.449219 67.550781 45 67 45 Z M 65 48C64.449219 48 64 48.449219 64 49C64 49.550781 64.449219 50 65 50C65.550781 50 66 49.550781 66 49C66 48.449219 65.550781 48 65 48 Z M 69 48C68.449219 48 68 48.449219 68 49C68 49.550781 68.449219 50 69 50C69.550781 50 70 49.550781 70 49C70 48.449219 69.550781 48 69 48Z" fill="#787C7F" />
</svg>