<svg xmlns="http://www.w3.org/2000/svg" viewBox="0 0 24 24"><path d="M14.783203 4L6.6191406 12.164062C6.2191406 12.563063 6 13.093203 6 13.658203C6 14.223203 6.2201406 14.755297 6.6191406 15.154297L10.845703 19.380859C11.244703 19.779859 11.777797 20 12.341797 20C12.906797 20 13.437937 19.779859 13.835938 19.380859L22 11.216797L22 4L14.783203 4 z M 9.3632812 4.2929688L1.5859375 12.070312C1.2079375 12.448313 1 12.949375 1 13.484375C1 14.019375 1.2079375 14.520437 1.5859375 14.898438L6.9492188 20.263672L8.3632812 18.849609L3 13.484375L10.777344 5.7050781L9.3632812 4.2929688 z M 15.611328 6L20 6L20 10.388672L12.421875 17.966797L12.259766 17.966797L8.0332031 13.740234L8.0332031 13.578125L15.611328 6 z M 17 8 A 1 1 0 0 0 16 9 A 1 1 0 0 0 17 10 A 1 1 0 0 0 18 9 A 1 1 0 0 0 17 8 z"/></svg>